#!OML:ASF F:\VICON\USERDATA\INSTALL\rory3\rory3.ASF
:FULLY-SPECIFIED
:DEGREES
55
root 0.14844739332710738 17.96453125503475 9.840828516655957 -0.4898959607883604 -3.4365153514280036 -7.4085299508845
lfemur -27.049928269605005 -3.5043840391889383 -9.414654284766916
ltibia 25.27128901077317
lfoot -1.9372675572021518 1.1266178540548482
ltoes -5.754443413489666
rfemur 6.163600077442949 6.405055335661341 35.08638689534711
rtibia 21.76811281929796
rfoot -17.54996638129116 -5.974436492147785
rtoes 5.277060147575863
lowerback 1.0 2.067273482560874 8.69594134283501
upperback -0.3573542836887583 3.596049216005218 2.2828479254533676
thorax -5.34536064270845 1.6251185442640728 -2.8192962550729144
lowerneck -16.298171840728244 -3.0866313515627843 -1.3248370681364765
upperneck 22.43210662766073 -4.09735016678932 -0.29406217526702494
head 9.897894521454479 -2.0104085338601636 -0.49156927444035536
lclavicle -6.119210991425333e-15 -1.0656819907044022e-14
lhumerus -37.15797911382077 6.738860516101765 82.06091467385797
lradius 22.129233187835858
lwrist 2.997740164147925
lhand -26.82916012640045 23.406688396208242
lfingers nan
lthumb -0.45694530160729463 52.9689206703525
rclavicle -4.69465028910894e-15 -7.637599457233026e-15
rhumerus -19.899620648311117 -8.278132542331955 -82.44344993146366
rradius 29.6897058411617
rwrist -0.03668850882257413
rhand -19.241508473725354 1.0
rfingers nan
rthumb 7.01719527052488 -4.650035644249773
56
root 0.18421126917671563 17.88073413208318 10.016813731325016 -0.11539496251049952 -3.9025858924275814 -7.526082583657355
lfemur -25.251775304025045 -6.128471601428955 -8.699212019663708
ltibia 14.57728325623792
lfoot -3.4352988064213035 0.8688135539015107
ltoes -7.255771750513333
rfemur 8.895902128381481 6.362062028213583 34.32742633235485
rtibia 21.41077099482076
rfoot -17.52307203690129 -4.418021075509417
rtoes 1.9087346469274165
lowerback 1.0 2.29177814753283 8.429310221661177
upperback -0.3465030234919041 3.8799699860458983 2.1240052313863838
thorax -5.054978178285782 1.7839798177383384 -2.8698290232522625
lowerneck -16.270846505833944 -3.078217532065981 -1.3068614039941466
upperneck 22.18290833947474 -4.129766567888171 -0.01224629564968438
head 9.850339497773337 -1.9945262802800194 -0.3699598926441428
lclavicle -3.674910223709824e-15 -2.303210156151515e-15
lhumerus -37.52435270827119 7.921799165701611 81.56714736760252
lradius 20.630486973298726
lwrist 1.7455221011497515
lhand -27.535663716258618 23.231531624848348
lfingers nan
lthumb -0.4582127640877906 54.29545487373558
rclavicle -3.660429604783943e-15 -2.5604915121617373e-15
rhumerus -19.02150812304741 -8.517641319163914 -82.5135868066937
rradius 30.303249633779068
rwrist -0.22808044052341803
rhand -19.243744685993306 1.0
rfingers nan
rthumb 7.078460860435716 -5.396560421106832
57
root 0.23344364736055817 17.79663285421271 10.706960459556456 -0.10717659417162428 -4.1094567594949005 -7.263303826063578
lfemur -24.65936693860614 -4.554142282662866 -10.192932455209672
ltibia 11.6176187420137
lfoot -5.040642745867316 0.722873253275488
ltoes -8.34831661548294
rfemur 10.073476865085846 6.747963348180271 33.77814561261687
rtibia 23.565986331141936
rfoot -16.887422592941235 -3.461706882282201
rtoes -0.9788970624848208
lowerback 1.0 2.263278220050543 7.884223992396877
upperback -0.4828224536009369 3.763804862110721 2.021207990857649
thorax -5.413547484673751 1.7373995743380344 -2.597284520243254
lowerneck -16.371213992738024 -3.2032559321942253 -1.489156796956569
upperneck 22.755489355730468 -4.228233216148937 0.19264544770577696
head 10.083250180652856 -2.0314760417236912 -0.3002246628239222
lclavicle -7.045741690227362e-16 -4.8142443844088425e-15
lhumerus -38.11442795189612 9.330714454256135 80.68251282148117
lradius 18.654533431640793
lwrist 0.8838777703634046
lhand -26.944449581477624 27.238175262924354
lfingers nan
lthumb -0.7912997451805639 55.94331107369014
rclavicle 7.618836229322601e-18 -3.43587177540313e-15
rhumerus -18.82986209110953 -8.799716163514564 -82.61787896145472
rradius 30.746636994680852
rwrist -0.22423373860350448
rhand -19.380407538648615 1.0
rfingers nan
rthumb 6.860162439790813 -5.504010614728134
58
root 0.29713906433025766 17.740716764357515 11.75007468080431 -0.5071463931287592 -3.999716152039885 -6.713863799746772
lfemur -25.748281932709197 -2.3627575439458735 -12.196335320553278
ltibia 18.21305654148228
lfoot -6.458908553400926 0.25594768014548563
ltoes -8.164562417357892
rfemur 11.892727938741102 7.169327481531942 33.7666284399671
rtibia 26.320711111987578
rfoot -14.53239994257185 -2.590729505391791
rtoes -4.04857773394769
lowerback 1.0 2.1829879986495686 7.734091299986642
upperback -0.33719116515718783 3.689451312705214 1.9530827652130693
thorax -5.076548432744054 1.7340612679803518 -2.675881467823798
lowerneck -16.102029372451607 -3.268838888274092 -1.4960979636782272
upperneck 22.603514679536833 -4.367139561647207 0.42183043109827506
head 9.980632367802915 -2.091598604395696 -0.20885652779943553
lclavicle 4.558959670552634e-16 9.107785866964356e-16
lhumerus -38.22962004135153 10.168024247606002 80.20671667061794
lradius 16.911569929486404
lwrist 0.356885210370363
lhand -29.993329176958706 23.399815440710295
lfingers nan
lthumb -2.593632299086562 54.82015931642853
rclavicle 1.6430637860192192e-15 9.30769349994889e-16
rhumerus -19.076400203626726 -9.897785345481896 -82.45949372861187
rradius 30.71345629085453
rwrist 0.256708469154888
rhand -19.40523766022947 1.0
rfingers nan
rthumb 6.719160460200742 -5.744166114131445
59
root 0.37391637648313414 17.726727340136932 12.97732682149919 -1.1998038668213813 -3.6599546984943174 -5.721878151734043
lfemur -25.80885497200785 -2.3390788659899355 -13.791091694054852
ltibia 24.066670576841364
lfoot -4.447807618801997 -0.9991024956449641
ltoes -4.266790160287702
rfemur 12.120392105913448 6.790110203915863 32.45545104321355
rtibia 31.773251201799265
rfoot -9.928337677067361 -0.8227599628132598
rtoes -4.545377833210303
lowerback 1.0 2.226221202480389 6.677378311606037
upperback -0.4235799345712127 3.5727524156254122 1.7892192709294341
thorax -5.531538503299813 1.7186495793315308 -2.177142447617957
lowerneck -15.794574605420033 -3.348314563877683 -1.5005602775198852
upperneck 23.143821063809348 -4.568197734412395 0.4946860850038693
head 10.109615596655205 -2.182709755513473 -0.21066615620602852
lclavicle 4.104865398956272e-15 -4.065297081007348e-15
lhumerus -39.039261609426646 10.715347933901082 79.4785443307412
lradius 16.594022280668078
lwrist -1.654986328775029
lhand -26.51056124497225 26.926326962563863
lfingers nan
lthumb 0.08375674016809287 56.59554497578298
rclavicle -8.899545240558131e-16 -6.995396702194602e-15
rhumerus -20.17780285711175 -11.378980471897952 -82.12489903479933
rradius 30.343853935740533
rwrist 0.9175810684761121
rhand -19.69018255135931 1.0
rfingers nan
rthumb 6.646453569646979 -4.865683416904051
60
root 0.4595239139908608 17.740589297806668 14.066586797595502 -1.9568534826221198 -3.380701672686012 -4.485196093275944
lfemur -24.25326182213219 -2.4842894584561908 -16.6866036242065
ltibia 27.134710869296324
lfoot -3.4654806870800243 -3.7248617611812893
ltoes -2.447796882663414
rfemur 9.516371476616085 4.790562897869913 29.231430115308456
rtibia 40.62937555527113
rfoot -0.6621944613601833 1.3887213772504028
rtoes -1.8315494418057803
lowerback 1.0 2.062774616180951 4.883178199816476
upperback -0.2003384384123135 3.368607416054282 1.333352389810725
thorax -5.419683712055895 1.5646802217532758 -1.8978372700204031
lowerneck -15.779251029194043 -3.438647729038509 -1.5966584585863741
upperneck 22.932427392245838 -4.878830409684358 0.7959501340856745
head 10.011925093481286 -2.293860750638192 -0.12162065818913509
lclavicle -1.415254156199948e-14 -1.0472571998556881e-14
lhumerus -38.5458276642305 12.305827498553196 78.19785852646693
lradius 15.502451191893709
lwrist -4.384254863924989
lhand -27.154678607464103 23.042046999315392
lfingers nan
lthumb 0.1370196647355324 54.78530269191103
rclavicle -1.2364677082174944e-14 -8.632486415594509e-15
rhumerus -21.594515024252644 -13.630041494023466 -81.5321461852293
rradius 29.917982579278693
rwrist 1.7674810902388423
rhand -20.8211682608066 1.0
rfingers nan
rthumb 5.7240345625107 -5.381351801770238
61
root 0.5442700586799378 17.776344092099045 14.84379044848116 -2.5786435162360144 -3.533014316069739 -3.1374556321934697
lfemur -21.797937889135625 -1.4541585435217799 -18.306458812734725
ltibia 29.97370304957604
lfoot -4.639242399952424 -4.20267070622943
ltoes -2.9513946229067467
rfemur 5.006438828978146 4.100686317194156 27.222189439578568
rtibia 50.13842851503781
rfoot 10.833682292896718 2.7775751209126005
rtoes 7.562803296714812
lowerback 1.0 2.177018122926113 4.468015233358559
upperback -0.13770642788741708 3.3755973769655903 1.221647576742268
thorax -5.373122927325741 1.59442412131873 -1.7258817577035626
lowerneck -15.669641450904932 -3.5035865413910483 -1.7304201615977375
upperneck 23.120959813085662 -5.117754289461618 1.0711638256654592
head 10.05198667192551 -2.39353250866022 -0.013159627827277344
lclavicle 2.27877317018629e-15 -6.74233122510778e-16
lhumerus -38.3537767075227 11.849211097844703 78.4864067015807
lradius 16.29054884764878
lwrist -3.912476859935506
lhand -21.30237376664816 37.069071935141054
lfingers nan
lthumb 4.35087823250211 65.45084793476926
rclavicle 4.0685753995216896e-15 -3.8175858153103897e-16
rhumerus -23.217294977387123 -15.394230894953012 -80.89045430906182
rradius 29.628109084310044
rwrist 2.400060297404553
rhand -20.10119808339486 1.0
rfingers nan
rthumb 6.295083028949698 -6.446712981375532
62
root 0.6082518867155343 17.82074498524333 15.131860844929843 -3.0524845831640977 -3.982744895019878 -1.7464937482251515
lfemur -19.16563211975582 -1.7816249443517522 -21.469463231011307
ltibia 30.52357393639801
lfoot -5.947889872745878 -3.245089011141543
ltoes -2.259758462653859
rfemur -1.6673374657329045 4.3549859081881435 23.704674869092464
rtibia 60.569273917580276
rfoot 20.672073814052467 2.1409570192274066
rtoes 27.156302890711665
lowerback 1.0 2.3043390434761752 2.469954852986459
upperback -0.035037192722493726 3.3560545626119618 0.7205417264886196
thorax -5.624087537996239 1.5959976413336332 -1.233571996921915
lowerneck -15.537324510628356 -3.274678599907017 -1.6735909046579995
upperneck 23.02182108705345 -4.711719122072259 1.0437986208594123
head 10.002543393479447 -2.192004266939512 0.015905718535729644
lclavicle 3.847177913045425e-15 -2.329640241520561e-15
lhumerus -37.749752621852124 10.02738638160481 79.49718125310878
lradius 17.64117821878963
lwrist -1.1841305971585299
lhand -23.530983830567326 30.334829413449857
lfingers nan
lthumb 2.5658899774697437 59.04847225832955
rclavicle 3.4103660259872955e-15 -1.4676025232036939e-15
rhumerus -24.08706328381849 -16.638500898601528 -80.50211824645667
rradius 28.608025559849626
rwrist 3.082221884020004
rhand -19.322341114380936 1.0
rfingers nan
rthumb 6.876463804329306 -6.732463434040135
